<svg xmlns="http://www.w3.org/2000/svg" version="1.1" xmlns:xlink="http://www.w3.org/1999/xlink" xmlns:svgjs="http://svgjs.dev/svgjs" width="1500" height="1500" viewBox="0 0 1500 1500"><rect width="1500" height="1500" fill="#ffffff"></rect><g transform="matrix(0.6666666666666666,0,0,0.6666666666666666,249.39393939393938,438.58569500674764)"><svg viewBox="0 0 396 247" data-background-color="#ffffff" preserveAspectRatio="xMidYMid meet" height="935" width="1500" xmlns="http://www.w3.org/2000/svg" xmlns:xlink="http://www.w3.org/1999/xlink"><g id="tight-bounds" transform="matrix(1,0,0,1,0.2400000000000091,-0.09999999999999432)"><svg viewBox="0 0 395.52 247.2" height="247.2" width="395.52"><g><svg></svg></g><g><svg viewBox="0 0 395.52 247.2" height="247.2" width="395.52"><g transform="matrix(1,0,0,1,75.54432,70.25362290429067)"><svg viewBox="0 0 244.43135999999998 106.69275419141867" height="106.69275419141867" width="244.43135999999998"><g><svg viewBox="0 0 244.43135999999998 106.69275419141867" height="106.69275419141867" width="244.43135999999998"><g><svg viewBox="0 0 244.43136 106.69275419141869" height="106.69275419141867" width="244.43135999999998"><g><svg viewBox="0 0 244.43136 106.69275419141869" height="106.69275419141869" width="244.43136"><g id="textblocktransform"><svg viewBox="0 0 244.43136 106.69275419141869" height="106.69275419141869" width="244.43136" id="textblock"><g><svg viewBox="0 0 244.43136 63.75890318144611" height="63.75890318144611" width="244.43136"><g transform="matrix(1,0,0,1,0,0)"><svg width="244.43136" viewBox="2.1499999999999995 -34 183.23 47.800000000000004" height="63.75890318144611" data-palette-color="#ff851b"><path d="M10.2 0.65L10.2 0.65Q8.35 0.65 6.8 0.3 5.25-0.05 4.25-1L4.25-1Q3.5-1.7 3.25-2.58 3-3.45 3-4.5L3-4.5Q3-6.2 3.3-7.9L3.3-7.9Q3.75-10.85 4.1-14.25 4.45-17.65 4.45-20.55L4.45-20.55Q4.45-21.45 4.38-22.6 4.3-23.75 4.15-24.75L4.15-24.75Q3.8-24.6 3.48-24.48 3.15-24.35 2.9-24.35L2.9-24.35Q2.45-24.35 2.3-24.8 2.15-25.25 2.15-25.8L2.15-25.8Q2.15-27.25 2.83-28.28 3.5-29.3 5.05-30.1L5.05-30.1Q6.7-31 9.38-31.68 12.05-32.35 14.8-32.35L14.8-32.35Q21.05-32.35 24.63-28.68 28.2-25 28.2-18.25L28.2-18.25Q28.2-14.4 27.03-10.98 25.85-7.55 23.55-4.93 21.25-2.3 17.9-0.83 14.55 0.65 10.2 0.65ZM11.8-4.95L11.8-4.95Q14.05-4.95 16.3-5.65 18.55-6.35 20.38-7.75 22.2-9.15 23.3-11.33 24.4-13.5 24.4-16.55L24.4-16.55Q24.4-20 23.05-22.25 21.7-24.5 19.45-25.6 17.2-26.7 14.45-26.7L14.45-26.7Q12.95-26.7 11.48-26.45 10-26.2 9.15-25.95L9.15-25.95Q9.1-23.65 8.88-21.48 8.65-19.3 8.35-17.25L8.35-17.25Q8.05-15.1 7.88-13.05 7.7-11 7.7-9L7.7-9Q7.7-6.5 8.72-5.73 9.75-4.95 11.8-4.95ZM36.05-24.85L36.05-24.85Q34.65-24.9 33.8-25.7 32.95-26.5 32.95-27.95L32.95-27.95Q33-29.5 34-30.48 35-31.45 36.55-31.4L36.55-31.4Q38-31.35 38.82-30.55 39.65-29.75 39.6-28.3L39.6-28.3Q39.55-26.8 38.6-25.83 37.65-24.85 36.05-24.85ZM36.1 0.5L36.1 0.5Q34.6 0.5 33.75-0.33 32.9-1.15 32.9-3.15L32.9-3.15Q32.9-4.3 33.12-5.4 33.35-6.5 33.65-7.55L33.65-7.55Q34-8.65 34.22-9.8 34.45-10.95 34.45-12.25L34.45-12.25Q34.45-13.15 34.2-13.98 33.95-14.8 33.1-15.2L33.1-15.2Q32.45-15.55 31.97-15.93 31.5-16.3 31.5-16.9L31.5-16.9Q31.5-17.6 32.15-18.4 32.8-19.2 33.87-19.78 34.95-20.35 36.1-20.35L36.1-20.35Q37.35-20.35 37.92-19.7 38.5-19.05 38.7-18.05 38.9-17.05 38.9-16L38.9-16Q38.9-14.4 38.65-12.88 38.4-11.35 38.15-10.05L38.15-10.05Q37.95-9.1 37.85-8.3 37.75-7.5 37.75-6.8L37.75-6.8Q37.75-5.55 38.35-4.93 38.95-4.3 40.05-3.75L40.05-3.75Q40.5-3.5 40.5-3L40.5-3Q40.5-2.6 40.1-1.75 39.7-0.9 38.72-0.2 37.75 0.5 36.1 0.5ZM50.75 13.8L50.75 13.8Q47 13.8 44.8 12.25 42.6 10.7 42.6 8.25L42.6 8.25Q42.6 6.45 43.72 5.05 44.85 3.65 46.7 3.65L46.7 3.65Q47.75 3.65 47.75 4.25L47.75 4.25Q47.75 4.6 47.62 5.05 47.5 5.5 47.5 5.95L47.5 5.95Q47.5 7.35 49.1 8.03 50.7 8.7 52.95 8.7L52.95 8.7Q54.35 8.7 55.8 8.4 57.25 8.1 58.22 7.48 59.2 6.85 59.2 5.8L59.2 5.8Q59.2 4.65 58.05 4.1 56.9 3.55 55.15 3.28 53.4 3 51.57 2.78 49.75 2.55 48.45 2.05L48.45 2.05Q46.8 1.5 46 0.7 45.2-0.1 45.2-1.35L45.2-1.35Q45.2-3.7 48.05-5.1L48.05-5.1Q46.4-5.95 45.57-7.5 44.75-9.05 44.75-10.95L44.75-10.95Q44.75-13.4 46.02-15.55 47.3-17.7 49.82-19.07 52.35-20.45 56.15-20.45L56.15-20.45Q57.85-20.45 59.6-20.13 61.35-19.8 62.52-18.93 63.7-18.05 63.7-16.4L63.7-16.4Q63.7-15.8 63.45-15.08 63.2-14.35 62.5-14.35L62.5-14.35Q62.2-14.35 61.7-14.48 61.2-14.6 60.8-14.7L60.8-14.7Q60.9-14.2 60.97-13.6 61.05-13 61.05-12.35L61.05-12.35Q61.05-9.4 59.05-7.03 57.05-4.65 53.2-4.2L53.2-4.2Q51.8-4.1 51.12-3.88 50.45-3.65 50.45-3.1L50.45-3.1Q50.45-2.6 51.05-2.38 51.65-2.15 52.6-2.05L52.6-2.05Q55.65-1.8 58-1.2 60.35-0.6 61.67 0.73 63 2.05 63 4.5L63 4.5Q63 7.35 61.32 9.43 59.65 11.5 56.85 12.65 54.05 13.8 50.75 13.8ZM52.65-8.55L52.65-8.55Q54.95-8.55 56.25-9.8 57.55-11.05 57.55-13.05L57.55-13.05Q57.55-13.6 57.45-14.18 57.35-14.75 57.25-15.15L57.25-15.15Q56.45-15.4 55.7-15.48 54.95-15.55 54.25-15.55L54.25-15.55Q51.6-15.55 50.1-14.55 48.6-13.55 48.6-11.8L48.6-11.8Q48.6-10.25 49.7-9.4 50.8-8.55 52.65-8.55ZM70.69-24.85L70.69-24.85Q69.29-24.9 68.44-25.7 67.59-26.5 67.59-27.95L67.59-27.95Q67.64-29.5 68.64-30.48 69.64-31.45 71.19-31.4L71.19-31.4Q72.64-31.35 73.47-30.55 74.29-29.75 74.24-28.3L74.24-28.3Q74.19-26.8 73.24-25.83 72.29-24.85 70.69-24.85ZM70.74 0.5L70.74 0.5Q69.24 0.5 68.39-0.33 67.54-1.15 67.54-3.15L67.54-3.15Q67.54-4.3 67.77-5.4 67.99-6.5 68.29-7.55L68.29-7.55Q68.64-8.65 68.87-9.8 69.09-10.95 69.09-12.25L69.09-12.25Q69.09-13.15 68.84-13.98 68.59-14.8 67.74-15.2L67.74-15.2Q67.09-15.55 66.62-15.93 66.14-16.3 66.14-16.9L66.14-16.9Q66.14-17.6 66.79-18.4 67.44-19.2 68.52-19.78 69.59-20.35 70.74-20.35L70.74-20.35Q71.99-20.35 72.57-19.7 73.14-19.05 73.34-18.05 73.54-17.05 73.54-16L73.54-16Q73.54-14.4 73.29-12.88 73.04-11.35 72.79-10.05L72.79-10.05Q72.59-9.1 72.49-8.3 72.39-7.5 72.39-6.8L72.39-6.8Q72.39-5.55 72.99-4.93 73.59-4.3 74.69-3.75L74.69-3.75Q75.14-3.5 75.14-3L75.14-3Q75.14-2.6 74.74-1.75 74.34-0.9 73.37-0.2 72.39 0.5 70.74 0.5ZM80.84 0.5L80.84 0.5Q79.89 0.5 79.54-0.05 79.19-0.6 79.19-1.25L79.19-1.25Q79.19-4.35 79.82-8.35 80.44-12.35 81.34-16.3L81.34-16.3Q82.14-19.65 83.12-22.55 84.09-25.45 84.84-27.3L84.84-27.3Q85.94-29.9 87.37-31.28 88.79-32.65 90.69-32.65L90.69-32.65Q92.09-32.65 93.19-31.73 94.29-30.8 94.49-28.4L94.49-28.4Q94.79-25.5 95.19-22.55 95.59-19.6 96.09-17.18 96.59-14.75 97.14-13.45L97.14-13.45Q97.59-12.3 98.44-12.3L98.44-12.3Q99.39-12.3 100.09-13.5L100.09-13.5Q100.74-14.6 101.49-16.5 102.24-18.4 102.97-20.53 103.69-22.65 104.24-24.4L104.24-24.4Q104.89-26.3 105.72-28.23 106.54-30.15 107.84-31.43 109.14-32.7 111.09-32.7L111.09-32.7Q112.89-32.7 113.67-31.48 114.44-30.25 114.44-27.6L114.44-27.6Q114.44-25.55 114.29-23.3L114.29-23.3Q114.24-22 114.17-20.63 114.09-19.25 114.09-17.8L114.09-17.8Q114.09-15.55 114.32-13.05 114.54-10.55 115.22-8.35 115.89-6.15 117.24-4.65L117.24-4.65Q117.64-4.3 117.97-3.85 118.29-3.4 118.29-2.85L118.29-2.85Q118.29-1.6 116.97-0.58 115.64 0.45 113.94 0.45L113.94 0.45Q112.39 0.45 111.64-0.55 110.89-1.55 110.44-3.25L110.44-3.25Q109.94-5.35 109.74-7.75 109.54-10.15 109.54-12.4L109.54-12.4Q109.54-16 109.82-19.03 110.09-22.05 110.09-23.5L110.09-23.5Q110.09-24.3 109.94-24.68 109.79-25.05 109.19-25.05L109.19-25.05Q108.49-25.05 108.02-24.43 107.54-23.8 107.24-22.7L107.24-22.7Q106.59-20.6 105.79-18.2 104.99-15.8 104.12-13.5 103.24-11.2 102.24-9.4L102.24-9.4Q101.09-7.3 99.77-6.58 98.44-5.85 97.09-5.85L97.09-5.85Q94.99-5.85 93.92-7.18 92.84-8.5 92.34-10.1L92.34-10.1Q91.69-12.25 91.14-15.73 90.59-19.2 90.34-23.55L90.34-23.55Q90.24-25.4 89.14-25.4L89.14-25.4Q87.94-25.4 87.24-23.6L87.24-23.6Q86.64-21.8 86.09-19.38 85.54-16.95 85.22-14.33 84.89-11.7 84.89-9.15L84.89-9.15Q84.89-7 85.07-5.4 85.24-3.8 85.24-2.4L85.24-2.4Q85.24-1.4 84.47-0.75 83.69-0.1 82.64 0.2 81.59 0.5 80.84 0.5ZM127.29 0.65L127.29 0.65Q124.29 0.65 122.46-1.23 120.64-3.1 120.64-6.6L120.64-6.6Q120.64-9.1 121.61-11.58 122.59-14.05 124.44-16.05 126.29-18.05 128.89-19.25 131.49-20.45 134.74-20.45L134.74-20.45Q137.74-20.45 139.86-19.43 141.99-18.4 141.99-16.65L141.99-16.65Q141.99-16.2 141.89-15.48 141.79-14.75 141.64-14.3L141.64-14.3Q141.49-13.9 141.21-13.58 140.94-13.25 140.49-13.25L140.49-13.25Q140.29-13.25 139.74-13.4L139.74-13.4Q139.54-12.35 139.44-11.35 139.34-10.35 139.34-9.35L139.34-9.35Q139.34-7.45 139.91-5.98 140.49-4.5 142.19-4.15L142.19-4.15Q142.64-4.05 142.91-3.85 143.19-3.65 143.19-3L143.19-3Q143.19-2.45 142.91-1.6 142.64-0.75 141.86-0.08 141.09 0.6 139.64 0.6L139.64 0.6Q137.69 0.6 136.64-0.83 135.59-2.25 135.59-4.9L135.59-4.9Q134.24-2.45 132.16-0.9 130.09 0.65 127.29 0.65ZM128.89-4.55L128.89-4.55Q130.89-4.55 132.41-5.8 133.94-7.05 134.79-8.95L134.79-8.95Q135.34-10.15 135.64-11.58 135.94-13 136.04-14.4L136.04-14.4Q135.19-14.8 134.09-15.05 132.99-15.3 131.79-15.3L131.79-15.3Q128.74-15.3 126.76-13.5 124.79-11.7 124.79-9L124.79-9Q124.79-7 125.89-5.78 126.99-4.55 128.89-4.55ZM148.19 0.55L148.19 0.55Q147.63 0.55 147.13 0.23 146.63-0.1 146.73-0.65L146.73-0.65Q147.48-4.65 148.01-8.78 148.53-12.9 148.53-17.1L148.53-17.1Q148.53-20.8 148.28-23.8 148.03-26.8 146.69-29.55L146.69-29.55Q146.44-30.1 146.28-30.5 146.13-30.9 146.13-31.25L146.13-31.25Q146.13-32.2 147.23-33.1 148.33-34 149.58-34L149.58-34Q151.38-34 152.03-31.8 152.69-29.6 152.69-25.3L152.69-25.3Q152.69-20.15 152.08-16.32 151.48-12.5 151.03-10.5L151.03-10.5 151.23-10.4Q152.23-12.85 153.78-15.13 155.33-17.4 157.36-18.9 159.38-20.4 161.78-20.4L161.78-20.4Q164.13-20.4 165.41-19 166.69-17.6 166.69-15.65L166.69-15.65Q166.69-13.35 165.03-11.55 163.38-9.75 160.73-8.55L160.73-8.55Q161.38-6.85 162.58-5.88 163.78-4.9 165.63-4.9L165.63-4.9Q166.23-4.9 166.63-5L166.63-5Q167.28-5.15 167.28-3.75L167.28-3.75Q167.28-2.95 166.98-1.95 166.69-0.95 165.81-0.23 164.94 0.5 163.19 0.5L163.19 0.5Q160.83 0.5 159.36-0.88 157.88-2.25 157.06-4.28 156.23-6.3 155.78-8.3L155.78-8.3Q155.38-10.15 157.03-10.25L157.03-10.25Q158.78-10.45 159.98-11.3 161.19-12.15 161.19-13.55L161.19-13.55Q161.19-15.15 159.63-15.15L159.63-15.15Q158.63-15.15 157.61-14.43 156.58-13.7 155.71-12.7 154.83-11.7 154.28-10.75L154.28-10.75Q153.53-9.45 152.98-8.2 152.44-6.95 152.08-5.7L152.08-5.7 152.08-3.7Q152.08-1.85 151.01-0.65 149.94 0.55 148.19 0.55ZM178.58 0.65L178.58 0.65Q175.53 0.65 174.21-1.38 172.88-3.4 172.88-6.6L172.88-6.6Q172.88-7.75 173.01-8.85 173.13-9.95 173.28-11.05L173.28-11.05Q173.43-12.15 173.58-13.2 173.73-14.25 173.83-15.2L173.83-15.2Q172.78-14.9 171.73-14.9L171.73-14.9Q170.63-14.9 170.63-15.8L170.63-15.8Q170.63-16.75 171.48-18.13 172.33-19.5 173.61-20.85 174.88-22.2 176.16-23.13 177.43-24.05 178.33-24.05L178.33-24.05Q179.43-24.05 179.43-22.15L179.43-22.15Q179.43-21.65 179.36-21.13 179.28-20.6 179.18-20.05L179.18-20.05Q180.13-20.25 181.11-20.4 182.08-20.55 182.98-20.55L182.98-20.55Q184.13-20.55 184.76-20.15 185.38-19.75 185.38-18.6L185.38-18.6Q185.38-17.4 184.81-16.2 184.23-15 183.53-15L183.53-15Q183.38-15 183.03-15.05 182.68-15.1 182.18-15.2L182.18-15.2Q181.53-15.35 180.53-15.5 179.53-15.65 178.13-15.65L178.13-15.65Q177.78-14.1 177.51-12.48 177.23-10.85 177.23-9.55L177.23-9.55Q177.23-6.65 178.68-5.6 180.13-4.55 182.88-4.55L182.88-4.55Q183.73-4.55 184.08-4.28 184.43-4 184.43-3.3L184.43-3.3Q184.43-1.65 182.73-0.5 181.03 0.65 178.58 0.65Z" opacity="1" transform="matrix(1,0,0,1,0,0)" fill="#ff851b" class="wordmark-text-0" data-fill-palette-color="primary" id="text-0"></path></svg></g></svg></g><g transform="matrix(1,0,0,1,0,78.81085000890918)"><svg viewBox="0 0 244.43136 27.88190418250951" height="27.88190418250951" width="244.43136"><g transform="matrix(1,0,0,1,0,0)"><svg width="244.43136" viewBox="1.27 -31.74 359.53000000000003 41.019999999999996" height="27.88190418250951" data-palette-color="#ff851b"><path d="M12.01 8.06L8.59 8.06 8.59-2.05Q11.28 0.29 14.79 0.49L14.79 0.49Q19.14 0.49 22.07-2.78L22.07-2.78Q24.9-5.96 24.9-10.84L24.9-10.84Q24.9-16.41 21.83-19.29L21.83-19.29Q19.68-21.24 16.6-21.24L16.6-21.24Q11.87-21.24 9.52-17.48L9.52-17.48Q8.94-16.5 8.54-15.43L8.54-15.43 8.3-20.75 1.27-20.75 1.27-19.53 4.93-19.53 4.93 5.13Q4.93 7.37 3.66 7.81L3.66 7.81Q2.93 8.06 1.27 8.06L1.27 8.06 1.27 9.28 13.23 9.28Q13.23 8.2 12.5 8.11L12.5 8.11Q12.3 8.06 12.01 8.06L12.01 8.06ZM15.04-19.29L15.04-19.29Q19.29-19.29 20.41-13.96L20.41-13.96Q20.75-12.35 20.75-10.35L20.75-10.35Q20.75-3.17 16.89-1.27L16.89-1.27Q15.77-0.73 14.45-0.73L14.45-0.73Q10.69-0.73 9.28-4.69L9.28-4.69Q8.54-6.69 8.54-9.42L8.54-9.42Q8.54-15.77 11.82-18.21L11.82-18.21Q13.28-19.29 15.04-19.29ZM32.96-10.4L32.96-10.4Q32.96-17.97 37.11-19.63L37.11-19.63Q38.18-20.02 39.35-20.02L39.35-20.02Q44.77-20.02 45.65-13.18L45.65-13.18Q45.8-12.01 45.8-10.6L45.8-10.6Q45.8-2.39 41.31-0.98L41.31-0.98Q40.43-0.73 39.5-0.73L39.5-0.73Q34.57-0.73 33.3-6.59L33.3-6.59Q32.96-8.3 32.96-10.4ZM39.5-21.24L39.5-21.24Q34.81-21.24 31.69-18.02L31.69-18.02Q28.81-15.04 28.81-10.6L28.81-10.6Q28.81-4.44 33.3-1.37L33.3-1.37Q36.03 0.49 39.35 0.49L39.35 0.49Q44.04 0.49 47.12-2.83L47.12-2.83Q49.95-5.86 49.95-10.4L49.95-10.4Q49.95-16.55 45.41-19.53L45.41-19.53Q42.72-21.24 39.5-21.24ZM58.2-19.53L61.86-19.53 61.86-20.75 52.19-20.75 52.19-19.53 54.39-19.53 60.49-3.17Q61.52-0.39 62.59 0.05L62.59 0.05Q63.13 0.24 63.91 0.24L63.91 0.24 64.89 0.24 69.14-12.55 72.41-3.17Q73.33-0.44 74.31 0.05L74.31 0.05Q74.8 0.24 75.63 0.24L75.63 0.24 76.41 0.24 82.32-17.77Q82.81-19.29 83.49-19.48L83.49-19.48Q83.74-19.53 84.03-19.53L84.03-19.53Q85.1-19.53 85.25-20.21L85.25-20.21Q85.3-20.46 85.3-20.75L85.3-20.75 78.07-20.75 78.07-19.53 81.49-19.53 76.07-2.69 70.36-19.53 73.77-19.53 73.77-20.75 66.25-20.75 68.45-14.55 64.4-2.54 58.2-19.53ZM97.45-20.02L97.45-20.02Q100.87-20.02 101.99-17.14L101.99-17.14Q102.39-16.21 102.39-15.14L102.39-15.14Q102.39-12.7 100.04-12.16L100.04-12.16Q98.82-11.91 96.57-11.96L96.57-11.96 91.4-12.11Q91.64-17.72 95.06-19.43L95.06-19.43Q96.18-20.02 97.45-20.02ZM105.95-4.69L105.95-4.69 104.73-5.13Q103.02-1.42 99.21-0.93L99.21-0.93Q98.72-0.88 98.28-0.88L98.28-0.88Q93.16-0.88 91.84-6.98L91.84-6.98Q91.45-8.69 91.4-10.74L91.4-10.74 97.26-10.64Q103.22-10.55 104.92-11.77L104.92-11.77Q106.24-12.74 106.24-14.55L106.24-14.55Q106.24-17.87 102.87-19.82L102.87-19.82Q100.48-21.24 97.36-21.24L97.36-21.24Q91.25-21.24 88.62-16.16L88.62-16.16Q87.25-13.53 87.25-10.21L87.25-10.21Q87.25-4.15 91.59-1.22L91.59-1.22Q94.18 0.49 97.5 0.49L97.5 0.49Q102.78 0.49 105.27-3.32L105.27-3.32Q105.66-4 105.95-4.69ZM120.35-1.22L120.35-1.22 116.84-1.22 116.84-10.94Q116.84-15.38 119.57-18.07L119.57-18.07Q120.64-19.09 121.38-19.14L121.38-19.14Q122.21-19.14 122.89-17.92L122.89-17.92Q123.67-16.55 124.36-16.36L124.36-16.36Q124.65-16.26 124.94-16.26L124.94-16.26Q126.41-16.26 126.8-17.68L126.8-17.68Q126.89-17.97 126.89-18.26L126.89-18.26Q126.89-20.46 124.65-20.95L124.65-20.95Q124.16-21.04 123.72-21.04L123.72-21.04Q120.79-21.04 118.5-18.55L118.5-18.55Q117.42-17.38 116.79-15.92L116.79-15.92 116.59-20.75 109.51-20.75 109.51-19.53 113.17-19.53 113.17-4.15Q113.17-1.9 111.9-1.46L111.9-1.46Q111.17-1.22 109.51-1.22L109.51-1.22 109.51 0 121.57 0Q121.57-1.07 120.84-1.17L120.84-1.17Q120.64-1.22 120.35-1.22ZM139.29-20.02L139.29-20.02Q142.71-20.02 143.84-17.14L143.84-17.14Q144.23-16.21 144.23-15.14L144.23-15.14Q144.23-12.7 141.88-12.16L141.88-12.16Q140.66-11.91 138.42-11.96L138.42-11.96 133.24-12.11Q133.48-17.72 136.9-19.43L136.9-19.43Q138.02-20.02 139.29-20.02ZM147.79-4.69L147.79-4.69 146.57-5.13Q144.86-1.42 141.05-0.93L141.05-0.93Q140.56-0.88 140.12-0.88L140.12-0.88Q135-0.88 133.68-6.98L133.68-6.98Q133.29-8.69 133.24-10.74L133.24-10.74 139.1-10.64Q145.06-10.55 146.76-11.77L146.76-11.77Q148.08-12.74 148.08-14.55L148.08-14.55Q148.08-17.87 144.71-19.82L144.71-19.82Q142.32-21.24 139.2-21.24L139.2-21.24Q133.09-21.24 130.46-16.16L130.46-16.16Q129.09-13.53 129.09-10.21L129.09-10.21Q129.09-4.15 133.43-1.22L133.43-1.22Q136.02 0.49 139.34 0.49L139.34 0.49Q144.62 0.49 147.11-3.32L147.11-3.32Q147.5-4 147.79-4.69ZM168-5.18L168.39 0 175.38 0Q175.38-1.07 174.64-1.17L174.64-1.17Q174.45-1.22 174.15-1.22L174.15-1.22 171.71-1.22 171.62-31.74 163.32-31.74 163.32-30.52 167.95-30.52 167.95-18.6Q165.56-21.24 161.51-21.24L161.51-21.24Q156.14-21.24 153.4-16.46L153.4-16.46Q151.74-13.53 151.74-9.86L151.74-9.86Q151.74-3.81 155.55-1.03L155.55-1.03Q157.7 0.49 160.29 0.49L160.29 0.49Q165.61 0.39 168-5.18L168-5.18ZM155.89-10.45L155.89-10.45Q155.89-17.33 159.6-19.38L159.6-19.38Q160.78-20.02 162.19-20.02L162.19-20.02Q165.76-20.02 167.27-16.21L167.27-16.21Q168.1-14.16 168.1-11.38L168.1-11.38Q168.1-5.52 165.17-2.88L165.17-2.88Q163.61-1.46 161.61-1.46L161.61-1.46Q157.6-1.46 156.38-6.35L156.38-6.35Q155.89-8.15 155.89-10.45ZM201.01 0.49L201.01 0.49Q205.3 0.49 208.23-2.73L208.23-2.73Q210.97-5.86 210.97-10.64L210.97-10.64Q210.97-16.02 208.04-19.04L208.04-19.04Q205.84-21.24 202.62-21.24L202.62-21.24Q197.29-21.24 195.05-16.46L195.05-16.46Q194.8-16.02 194.66-15.58L194.66-15.58 194.66-31.74 187.33-31.74 187.33-30.52 191-30.52 191-4.15Q191-1.9 189.73-1.46L189.73-1.46Q188.99-1.22 187.33-1.22L187.33-1.22 187.33 0 193.49 0 193.93-3.22Q196.02 0.15 200.27 0.44L200.27 0.44Q200.66 0.49 201.01 0.49ZM201.1-19.29L201.1-19.29Q205.11-19.29 206.33-14.4L206.33-14.4Q206.82-12.6 206.82-10.3L206.82-10.3Q206.82-3.42 203.11-1.37L203.11-1.37Q201.93-0.73 200.52-0.73L200.52-0.73Q196.86-0.73 195.34-4.64L195.34-4.64Q194.61-6.69 194.61-9.38L194.61-9.38Q194.61-15.28 197.54-17.92L197.54-17.92Q199.1-19.29 201.1-19.29ZM217.95 7.76L217.95 7.76Q217.17 7.76 216.77 6.59L216.77 6.59Q216.24 5.13 215.75 4.79L215.75 4.79Q215.31 4.49 214.72 4.49L214.72 4.49Q213.16 4.49 212.92 5.86L212.92 5.86Q212.87 6.05 212.87 6.2L212.87 6.2Q212.87 8.06 215.02 8.89L215.02 8.89Q215.99 9.28 217.07 9.28L217.07 9.28Q220.92 9.28 223.76 4.54L223.76 4.54Q224.93 2.64 226 0L226 0 233.23-17.82Q233.72-19.19 234.3-19.38L234.3-19.38Q234.65-19.48 235.08-19.48L235.08-19.48Q236.06-19.48 236.21-20.02L236.21-20.02Q236.31-20.31 236.31-20.75L236.31-20.75 228.88-20.75 228.88-19.48 232.45-19.48 226.2-3.86 219.51-19.48 222.78-19.48 222.78-20.75 213.26-20.75 213.26-19.48 215.65-19.48 224.44 0Q221.71 6.45 219.31 7.47L219.31 7.47Q218.63 7.76 217.95 7.76ZM258.22-20.02L258.22-20.02Q261.64-20.02 262.77-17.14L262.77-17.14Q263.16-16.21 263.16-15.14L263.16-15.14Q263.16-12.7 260.81-12.16L260.81-12.16Q259.59-11.91 257.35-11.96L257.35-11.96 252.17-12.11Q252.41-17.72 255.83-19.43L255.83-19.43Q256.95-20.02 258.22-20.02ZM266.72-4.69L266.72-4.69 265.5-5.13Q263.79-1.42 259.98-0.93L259.98-0.93Q259.49-0.88 259.05-0.88L259.05-0.88Q253.93-0.88 252.61-6.98L252.61-6.98Q252.22-8.69 252.17-10.74L252.17-10.74 258.03-10.64Q263.99-10.55 265.7-11.77L265.7-11.77Q267.01-12.74 267.01-14.55L267.01-14.55Q267.01-17.87 263.64-19.82L263.64-19.82Q261.25-21.24 258.13-21.24L258.13-21.24Q252.02-21.24 249.39-16.16L249.39-16.16Q248.02-13.53 248.02-10.21L248.02-10.21Q248.02-4.15 252.37-1.22L252.37-1.22Q254.95 0.49 258.27 0.49L258.27 0.49Q263.55 0.49 266.04-3.32L266.04-3.32Q266.43-4 266.72-4.69ZM278-0.83L278-0.83Q281.37-0.83 282.54-2.88L282.54-2.88Q282.98-3.61 282.98-4.49L282.98-4.49Q282.98-6.54 280-8.01L280-8.01Q279.36-8.35 277.9-8.98L277.9-8.98Q273.9-10.64 272.58-12.11L272.58-12.11Q271.16-13.72 271.16-15.87L271.16-15.87Q271.16-19.24 274.87-20.61L274.87-20.61Q276.58-21.24 278.58-21.24L278.58-21.24Q281.81-21.24 284.15-19.87L284.15-19.87Q284.15-21.29 284.83-21.48L284.83-21.48Q285.13-21.53 285.47-21.53L285.47-21.53 285.47-15.43 284.2-15.43Q284.1-19.92 279.22-19.97L279.22-19.97Q275.56-19.97 274.68-17.82L274.68-17.82Q274.43-17.24 274.43-16.6L274.43-16.6Q274.43-14.5 277.46-13.04L277.46-13.04Q278.14-12.7 279.61-12.11L279.61-12.11Q283.56-10.5 284.88-9.03L284.88-9.03Q286.3-7.47 286.3-5.32L286.3-5.32Q286.3-1.37 282.1-0.05L282.1-0.05Q280.49 0.49 278.58 0.49L278.58 0.49Q275.07 0.44 272.48-1.27L272.48-1.27Q272.48 0 271.85 0.2L271.85 0.2Q271.55 0.24 271.16 0.24L271.16 0.24 271.16-7.18 272.53-7.18Q272.63-0.88 278-0.83ZM294.35-10.4L294.35-10.4Q294.35-17.97 298.5-19.63L298.5-19.63Q299.58-20.02 300.75-20.02L300.75-20.02Q306.17-20.02 307.05-13.18L307.05-13.18Q307.19-12.01 307.19-10.6L307.19-10.6Q307.19-2.39 302.7-0.98L302.7-0.98Q301.82-0.73 300.9-0.73L300.9-0.73Q295.96-0.73 294.69-6.59L294.69-6.59Q294.35-8.3 294.35-10.4ZM300.9-21.24L300.9-21.24Q296.21-21.24 293.08-18.02L293.08-18.02Q290.2-15.04 290.2-10.6L290.2-10.6Q290.2-4.44 294.69-1.37L294.69-1.37Q297.43 0.49 300.75 0.49L300.75 0.49Q305.44 0.49 308.51-2.83L308.51-2.83Q311.34-5.86 311.34-10.4L311.34-10.4Q311.34-16.55 306.8-19.53L306.8-19.53Q304.12-21.24 300.9-21.24ZM324.33-1.22L324.33-1.22 322.13-1.22 322.13-8.45 324.82-10.94 331.7 0 338.2 0Q338.2-1.07 337.47-1.17L337.47-1.17Q337.27-1.22 336.98-1.22L336.98-1.22 335.22-1.22 327.36-13.33 331.95-17.63Q333.66-19.24 334.54-19.43L334.54-19.43Q334.93-19.53 335.41-19.53L335.41-19.53Q336.49-19.53 336.59-20.26L336.59-20.26Q336.63-20.51 336.63-20.75L336.63-20.75 328.33-20.75 328.33-19.53 332-19.53 322.13-10.4 322.13-31.74 314.81-31.74 314.81-30.52 318.47-30.52 318.47-4.15Q318.47-1.9 317.2-1.46L317.2-1.46Q316.47-1.22 314.81-1.22L314.81-1.22 314.81 0 325.55 0Q325.55-1.07 324.82-1.17L324.82-1.17Q324.62-1.22 324.33-1.22ZM343.81-10.4L343.81-10.4Q343.81-17.97 347.96-19.63L347.96-19.63Q349.03-20.02 350.21-20.02L350.21-20.02Q355.63-20.02 356.51-13.18L356.51-13.18Q356.65-12.01 356.65-10.6L356.65-10.6Q356.65-2.39 352.16-0.98L352.16-0.98Q351.28-0.73 350.35-0.73L350.35-0.73Q345.42-0.73 344.15-6.59L344.15-6.59Q343.81-8.3 343.81-10.4ZM350.35-21.24L350.35-21.24Q345.67-21.24 342.54-18.02L342.54-18.02Q339.66-15.04 339.66-10.6L339.66-10.6Q339.66-4.44 344.15-1.37L344.15-1.37Q346.89 0.49 350.21 0.49L350.21 0.49Q354.89 0.49 357.97-2.83L357.97-2.83Q360.8-5.86 360.8-10.4L360.8-10.4Q360.8-16.55 356.26-19.53L356.26-19.53Q353.58-21.24 350.35-21.24Z" opacity="1" transform="matrix(1,0,0,1,0,0)" fill="#ff851b" class="slogan-text-1" data-fill-palette-color="secondary" id="text-1"></path></svg></g></svg></g></svg></g></svg></g><g></g></svg></g></svg></g></svg></g><g><path d="M96.477 55.202A122.216 122.216 0 0 1 299.043 55.202L293.294 55.202A116.466 116.466 0 0 0 102.226 55.202L96.477 55.202M96.477 191.998A122.216 122.216 0 0 0 299.043 191.998L293.294 191.998A116.466 116.466 0 0 1 102.226 191.998L96.477 191.998" fill="#ff851b" stroke="transparent" data-fill-palette-color="tertiary"></path></g></svg></g><defs></defs></svg><rect width="395.52" height="247.2" fill="none" stroke="none" visibility="hidden"></rect></g></svg></g></svg>